# Blender v2.79 (sub 0) OBJ File: 'explosion_bit.blend'
# www.blender.org
mtllib explosion_bit.mtl
o Cube
v 0.000000 -0.163349 -5.843921
v 0.000000 0.000000 -0.030948
v -0.141421 0.000000 -5.843921
v 0.141421 0.000000 -5.843921
v 0.000000 0.000000 -6.172836
v 0.000000 0.163349 -5.843921
vt 1.000000 0.946447
vt 0.500004 0.946447
vt 0.500004 0.987979
vt 0.500004 0.946447
vt 0.000000 0.946447
vt 0.500004 0.012021
vn 0.7190 -0.6225 -0.3091
vn 0.7190 0.6225 -0.3091
vn -0.7190 -0.6225 -0.3091
vn -0.7190 0.6225 -0.3091
vn 0.7559 -0.6544 0.0184
vn 0.0000 0.9996 0.0281
vn -0.7559 -0.6544 0.0184
vn -0.7559 0.6544 0.0184
usemtl Material
s off
f 4/1/1 1/2/1 5/3/1
f 5/3/2 6/4/2 4/1/2
f 3/5/3 5/3/3 1/2/3
f 6/4/4 5/3/4 3/5/4
f 1/2/5 4/1/5 2/6/5
f 6/4/6 3/5/6 2/6/6 4/1/6
f 2/6/7 3/5/7 1/2/7
f 3/5/8 2/6/8 6/4/8
