# Blender v2.79 (sub 0) OBJ File: 'weapon_pickup_ceiling.blend'
# www.blender.org
mtllib weapon_pickup_ceiling.mtl
o weapon_pickup_Cylinder
v 1.630542 0.243741 0.675393
v 1.630542 -2.024108 0.675393
v 1.247963 0.243741 1.247963
v 1.247963 -2.024108 1.247963
v 0.675392 0.243741 1.630542
v 0.675392 -2.024108 1.630542
v 1.838217 -2.024108 0.761414
v 1.406910 -2.024108 1.406911
v 0.761414 -2.024108 1.838217
v 0.620439 -1.302035 1.497873
v 1.146422 -1.302035 1.146423
v 1.497873 -1.302035 0.620439
v 1.497873 -2.514069 0.620439
v 1.146422 -2.514069 1.146423
v 0.620439 -2.514069 1.497873
v 0.761414 -2.514069 1.838217
v 1.406910 -2.514069 1.406911
v 1.838217 -2.514069 0.761414
v -1.630542 0.243741 0.675393
v -1.630542 -2.024108 0.675393
v -1.247963 0.243741 1.247963
v -1.247963 -2.024108 1.247963
v -0.675392 0.243741 1.630542
v -0.675392 -2.024108 1.630542
v 0.000000 0.243741 1.764886
v 0.000000 -2.024108 1.764886
v -1.838217 -2.024108 0.761414
v -1.406910 -2.024108 1.406911
v -0.761414 -2.024108 1.838217
v 0.000000 -2.024108 1.989672
v 0.000000 -1.302035 1.621287
v -0.620439 -1.302035 1.497873
v -1.146422 -1.302035 1.146423
v -1.497873 -1.302035 0.620439
v -1.497873 -2.514069 0.620439
v -1.146422 -2.514069 1.146423
v -0.620439 -2.514069 1.497873
v 0.000000 -2.514069 1.621287
v 0.000000 -2.514069 1.989672
v -0.761414 -2.514069 1.838217
v -1.406910 -2.514069 1.406911
v -1.838217 -2.514069 0.761414
v 1.630542 -0.162876 0.675393
v 1.247963 -0.162876 1.247963
v 0.675392 -0.162876 1.630542
v 0.000000 -0.162876 1.764886
v -1.630542 -0.162876 0.675393
v -1.247963 -0.162876 1.247963
v -0.675392 -0.162876 1.630542
v 1.630542 -1.430009 0.675393
v 1.247963 -1.430009 1.247963
v 0.675392 -1.430009 1.630542
v 0.000000 -1.430009 1.764886
v -1.630542 -1.430009 0.675393
v -1.247963 -1.430009 1.247963
v -0.675392 -1.430009 1.630542
v 1.764886 0.243741 0.000000
v 1.764886 -2.024108 0.000000
v 1.630542 0.243741 -0.675393
v 1.630542 -2.024108 -0.675393
v 1.247963 0.243741 -1.247963
v 1.247963 -2.024108 -1.247963
v 0.675392 0.243741 -1.630542
v 0.675392 -2.024108 -1.630542
v 1.989671 -2.024108 0.000000
v 1.838217 -2.024108 -0.761414
v 1.406910 -2.024108 -1.406911
v 0.761414 -2.024108 -1.838217
v 1.621286 -1.302035 0.000000
v 1.989671 -2.514069 0.000000
v 0.620439 -1.302035 -1.497873
v 1.146422 -1.302035 -1.146423
v 1.497873 -1.302035 -0.620439
v 1.497873 -2.514069 -0.620439
v 1.146422 -2.514069 -1.146423
v 0.620439 -2.514069 -1.497873
v 1.621286 -2.514069 0.000000
v 0.761414 -2.514069 -1.838217
v 1.406910 -2.514069 -1.406911
v 1.838217 -2.514069 -0.761414
v -1.764886 0.243741 0.000000
v -1.764886 -2.024108 0.000000
v -1.630542 0.243741 -0.675393
v -1.630542 -2.024108 -0.675393
v -1.247963 0.243741 -1.247963
v -1.247963 -2.024108 -1.247963
v -0.675392 0.243741 -1.630542
v -0.675392 -2.024108 -1.630542
v 0.000000 0.243741 -1.764886
v 0.000000 -2.024108 -1.764886
v -1.989671 -2.024108 0.000000
v -1.838217 -2.024108 -0.761414
v -1.406910 -2.024108 -1.406911
v -0.761414 -2.024108 -1.838217
v 0.000000 -2.024108 -1.989672
v 0.000000 -1.302035 0.000000
v -1.621286 -1.302035 0.000000
v -1.989671 -2.514069 0.000000
v 0.000000 -1.302035 -1.621287
v -0.620439 -1.302035 -1.497873
v -1.146422 -1.302035 -1.146423
v -1.497873 -1.302035 -0.620439
v -1.497873 -2.514069 -0.620439
v -1.146422 -2.514069 -1.146423
v -0.620439 -2.514069 -1.497873
v 0.000000 -2.514069 -1.621287
v -1.621286 -2.514069 0.000000
v 0.000000 -2.514069 -1.989672
v -0.761414 -2.514069 -1.838217
v -1.406910 -2.514069 -1.406911
v -1.838217 -2.514069 -0.761414
v 0.000000 0.243741 0.000000
v 1.764886 -0.162876 0.000000
v 1.630542 -0.162876 -0.675393
v 1.247963 -0.162876 -1.247963
v 0.675392 -0.162876 -1.630542
v 0.000000 -0.162876 -1.764886
v -1.764886 -0.162876 0.000000
v -1.630542 -0.162876 -0.675393
v -1.247963 -0.162876 -1.247963
v -0.675392 -0.162876 -1.630542
v 1.764886 -1.430009 0.000000
v 1.630542 -1.430009 -0.675393
v 1.247963 -1.430009 -1.247963
v 0.675392 -1.430009 -1.630542
v 0.000000 -1.430009 -1.764886
v -1.764886 -1.430009 0.000000
v -1.630542 -1.430009 -0.675393
v -1.247963 -1.430009 -1.247963
v -0.675392 -1.430009 -1.630542
vt 0.676078 0.932710
vt 0.676078 0.964654
vt 0.627118 0.964654
vt 0.627118 0.932710
vt 0.737729 0.296875
vt 0.524952 0.296875
vt 0.524952 0.164063
vt 0.737729 0.164063
vt 0.620177 0.928358
vt 0.620177 0.958162
vt 0.574498 0.958162
vt 0.574498 0.928358
vt 0.620177 0.928358
vt 0.620177 0.958162
vt 0.574498 0.958162
vt 0.574498 0.928358
vt 0.620177 0.928358
vt 0.620177 0.958162
vt 0.574498 0.958162
vt 0.574498 0.928358
vt 0.992188 0.007812
vt 0.992188 0.156250
vt 0.347656 0.156250
vt 0.347656 0.007813
vt 0.992187 0.007812
vt 0.992188 0.156250
vt 0.347656 0.156250
vt 0.347656 0.007813
vt 1.000000 0.423076
vt 1.000000 0.546875
vt 0.737729 0.546875
vt 0.737729 0.423076
vt 0.524952 0.546875
vt 0.524952 0.423076
vt 0.229885 0.546875
vt 0.229885 0.423076
vt 0.017498 0.546875
vt 0.017498 0.423076
vt 0.229885 0.296875
vt 0.229885 0.164063
vt 0.017498 0.296875
vt 0.017498 0.164063
vt 1.000000 0.296875
vt 1.000000 0.164063
vt 0.992188 0.007812
vt 0.992188 0.156250
vt 0.347656 0.156250
vt 0.347656 0.007813
vt 0.992188 0.007812
vt 0.992187 0.156250
vt 0.347656 0.156250
vt 0.347656 0.007813
vt 0.057760 0.095857
vt 0.057767 0.076720
vt 0.065084 0.094403
vt 0.071294 0.090257
vt 0.075445 0.084050
vt 0.076904 0.076727
vt 0.620177 0.958162
vt 0.574498 0.958162
vt 0.574498 0.928358
vt 0.620177 0.928358
vt 0.229885 0.296875
vt 0.229885 0.164063
vt 0.524952 0.164063
vt 0.524952 0.296875
vt 0.620177 0.958162
vt 0.574498 0.958162
vt 0.574498 0.928358
vt 0.620177 0.928358
vt 0.574498 0.928358
vt 0.620177 0.928358
vt 0.620177 0.958162
vt 0.574498 0.958162
vt 0.574498 0.928358
vt 0.620177 0.928358
vt 0.620177 0.958162
vt 0.574498 0.958162
vt 0.992188 0.156249
vt 0.347656 0.156250
vt 0.347656 0.007813
vt 0.992187 0.007812
vt 0.992188 0.156250
vt 0.347656 0.156250
vt 0.347656 0.007813
vt 0.992187 0.007812
vt 0.017498 0.423076
vt 0.229885 0.423076
vt 0.229885 0.546875
vt 0.017498 0.546875
vt 0.524952 0.423076
vt 0.524952 0.546875
vt 0.737729 0.423076
vt 0.737729 0.546875
vt 1.000000 0.423076
vt 1.000000 0.546875
vt 0.737729 0.164063
vt 0.737729 0.296875
vt 1.000000 0.164063
vt 1.000000 0.296875
vt 0.017498 0.296875
vt 0.017498 0.164063
vt 0.992188 0.156250
vt 0.347656 0.156250
vt 0.347656 0.007813
vt 0.992188 0.007812
vt 0.992188 0.156250
vt 0.347656 0.156250
vt 0.347656 0.007813
vt 0.992188 0.007812
vt 0.050438 0.094398
vt 0.044231 0.090247
vt 0.040084 0.084038
vt 0.038630 0.076714
vt 0.017775 0.100173
vt 0.020322 0.087368
vt 0.051237 0.100173
vt 0.027576 0.076512
vt 0.038432 0.069258
vt 0.051237 0.066711
vt 0.064043 0.069258
vt 0.074899 0.076512
vt 0.082152 0.087368
vt 0.084699 0.100173
vt 0.666282 0.932710
vt 0.666282 0.981670
vt 0.627118 0.981670
vt 0.627118 0.932710
vt 0.611043 0.928371
vt 0.611028 0.974037
vt 0.574498 0.974025
vt 0.574514 0.928359
vt 0.611038 0.928359
vt 0.611038 0.974037
vt 0.574498 0.974037
vt 0.574498 0.928359
vt 1.000000 0.554688
vt 1.000000 0.992188
vt 0.773438 0.992188
vt 0.773437 0.554688
vt 0.574498 0.928359
vt 0.611038 0.928359
vt 0.611038 0.974037
vt 0.574498 0.974037
vt 0.574498 0.928359
vt 0.611038 0.928359
vt 0.611038 0.974037
vt 0.574498 0.974037
vt 0.574498 0.928359
vt 0.611038 0.928359
vt 0.611038 0.974037
vt 0.574498 0.974037
vt 0.531250 0.554688
vt 0.531250 0.992188
vt 0.000000 0.820312
vt 0.195313 0.820312
vt 0.195312 1.000000
vt 0.000000 1.000000
vt 0.000000 0.820312
vt 0.195313 0.820312
vt 0.195313 1.000000
vt 0.000000 1.000000
vt 0.000000 0.820313
vt 0.195312 0.820312
vt 0.195313 1.000000
vt 0.000000 1.000000
vt 0.000000 0.820313
vt 0.195312 0.820312
vt 0.195313 1.000000
vt 0.000000 1.000000
vt 0.195312 0.820312
vt 0.195313 1.000000
vt 0.000000 1.000000
vt 0.000000 0.820312
vt 0.195312 0.820312
vt 0.195313 1.000000
vt 0.000000 1.000000
vt 0.000000 0.820313
vt 0.195313 0.820312
vt 0.195312 1.000000
vt 0.000000 1.000000
vt 0.000000 0.820313
vt 0.195312 0.820312
vt 0.195313 1.000000
vt 0.000000 1.000000
vt 0.000000 0.820313
vt 0.627118 0.932710
vt 0.627118 0.964654
vt 0.239463 0.296875
vt 0.239463 0.164063
vt 0.541908 0.164063
vt 0.541908 0.296875
vt 0.620177 0.928358
vt 0.574498 0.928358
vt 0.574498 0.958162
vt 0.620177 0.958162
vt 0.620177 0.928358
vt 0.574498 0.928358
vt 0.574498 0.958162
vt 0.620177 0.958162
vt 0.620177 0.928358
vt 0.574498 0.928358
vt 0.574498 0.958162
vt 0.620177 0.958162
vt 0.992188 0.007812
vt 0.347656 0.007813
vt 0.347656 0.156250
vt 0.992188 0.156250
vt 0.992187 0.007812
vt 0.347656 0.007813
vt 0.347656 0.156250
vt 0.992188 0.156250
vt 0.017498 0.423076
vt 0.239463 0.423076
vt 0.239463 0.546875
vt 0.017498 0.546875
vt 0.541908 0.423076
vt 0.541908 0.546875
vt 0.738250 0.423076
vt 0.738250 0.546875
vt 1.000000 0.423076
vt 1.000000 0.546875
vt 0.738250 0.164063
vt 0.738250 0.296875
vt 1.000000 0.164063
vt 1.000000 0.296875
vt 0.017498 0.296875
vt 0.017498 0.164063
vt 0.992188 0.007812
vt 0.347656 0.007813
vt 0.347656 0.156250
vt 0.992188 0.156250
vt 0.347656 0.156250
vt 0.992187 0.156250
vt 0.057760 0.095857
vt 0.065084 0.094403
vt 0.071294 0.090257
vt 0.075445 0.084050
vt 0.574498 0.928358
vt 0.574498 0.958162
vt 0.738250 0.296875
vt 0.541908 0.296875
vt 0.541908 0.164063
vt 0.738250 0.164063
vt 0.620177 0.958162
vt 0.620177 0.928358
vt 0.574498 0.928358
vt 0.574498 0.958162
vt 0.574498 0.928358
vt 0.574498 0.958162
vt 0.620177 0.958162
vt 0.620177 0.928358
vt 0.574498 0.928358
vt 0.574498 0.958162
vt 0.620177 0.958162
vt 0.620177 0.928358
vt 0.992188 0.156249
vt 0.992187 0.007812
vt 0.347656 0.007813
vt 0.347656 0.156250
vt 0.992188 0.156250
vt 0.992187 0.007812
vt 0.347656 0.007813
vt 0.347656 0.156250
vt 1.000000 0.423076
vt 1.000000 0.546875
vt 0.738250 0.546875
vt 0.738250 0.423076
vt 0.541908 0.546875
vt 0.541908 0.423076
vt 0.239463 0.546875
vt 0.239463 0.423076
vt 0.017498 0.546875
vt 0.017498 0.423076
vt 0.239463 0.296875
vt 0.239463 0.164063
vt 0.017498 0.296875
vt 0.017498 0.164063
vt 1.000000 0.296875
vt 1.000000 0.164063
vt 0.992188 0.156250
vt 0.992188 0.007812
vt 0.347656 0.007813
vt 0.347656 0.156250
vt 0.992188 0.007812
vt 0.347656 0.007813
vt 0.050438 0.094398
vt 0.044231 0.090247
vt 0.040084 0.084038
vt 0.020322 0.087368
vt 0.027576 0.076512
vt 0.038432 0.069258
vt 0.051237 0.066711
vt 0.064043 0.069258
vt 0.074899 0.076512
vt 0.082152 0.087368
vt 0.627118 0.932710
vt 0.627118 0.981670
vt 0.611043 0.928371
vt 0.574514 0.928359
vt 0.574498 0.974025
vt 0.611028 0.974037
vt 0.611038 0.928359
vt 0.574498 0.928359
vt 0.574498 0.974037
vt 0.611038 0.974037
vt 0.611038 0.928359
vt 0.574498 0.928359
vt 0.574498 0.974037
vt 0.611038 0.974037
vt 0.611038 0.974037
vt 0.611038 0.928359
vt 0.574498 0.928359
vt 0.574498 0.974037
vt 0.611038 0.974037
vt 0.611038 0.928359
vt 0.574498 0.928359
vt 0.574498 0.974037
vt 0.611038 0.974037
vt 0.611038 0.928359
vt 0.574498 0.928359
vt 0.574498 0.974037
vt 0.611038 0.974037
vt 0.611038 0.928359
vt 0.195313 0.820312
vt 0.195313 1.000000
vt 0.000000 1.000000
vt 0.000000 0.820312
vt 0.195313 0.820312
vt 0.195313 1.000000
vt 0.000000 1.000000
vt 0.000000 0.820312
vt 0.195313 0.820313
vt 0.195313 1.000000
vt 0.000000 1.000000
vt 0.000000 0.820312
vt 0.195313 0.820313
vt 0.195313 1.000000
vt 0.000000 1.000000
vt 0.000000 0.820312
vt 0.000000 0.820312
vt 0.195313 0.820312
vt 0.195313 1.000000
vt 0.000000 1.000000
vt 0.000000 0.820312
vt 0.195313 0.820313
vt 0.195313 1.000000
vt 0.000000 1.000000
vt 0.000000 0.820312
vt 0.195313 0.820313
vt 0.195313 1.000000
vt 0.000000 1.000000
vt 0.000000 0.820312
vt 0.195313 0.820313
vt 0.195313 1.000000
vt 0.000000 1.000000
vn 0.9808 0.0000 0.1951
vn 0.0000 -1.0000 -0.0000
vn 0.8315 0.0000 0.5556
vn 0.5556 0.0000 0.8315
vn 0.1951 0.0000 0.9808
vn -0.1951 0.0000 -0.9808
vn -0.5556 0.0000 -0.8315
vn 0.0000 1.0000 -0.0000
vn -0.8315 0.0000 -0.5556
vn -0.9808 0.0000 -0.1951
vn -0.9808 0.0000 0.1951
vn -0.8315 0.0000 0.5556
vn -0.5556 0.0000 0.8315
vn -0.1951 0.0000 0.9808
vn 0.1951 0.0000 -0.9808
vn 0.5556 0.0000 -0.8315
vn 0.8315 0.0000 -0.5556
vn 0.9808 0.0000 -0.1951
usemtl weapon_pickup_ceiling
s off
f 113/1/1 57/2/1 1/3/1 43/4/1
f 18/5/2 17/6/2 14/7/2 13/8/2
f 43/9/3 1/10/3 3/11/3 44/12/3
f 44/13/4 3/14/4 5/15/4 45/16/4
f 45/17/5 5/18/5 25/19/5 46/20/5
f 15/21/6 38/22/6 31/23/6 10/24/6
f 14/25/7 15/26/7 10/27/7 11/28/7
f 65/29/8 58/30/8 2/31/8 7/32/8
f 7/32/8 2/31/8 4/33/8 8/34/8
f 8/34/8 4/33/8 6/35/8 9/36/8
f 9/36/8 6/35/8 26/37/8 30/38/8
f 17/6/2 16/39/2 15/40/2 14/7/2
f 16/39/2 39/41/2 38/42/2 15/40/2
f 70/43/2 18/5/2 13/8/2 77/44/2
f 13/45/9 14/46/9 11/47/9 12/48/9
f 77/49/10 13/50/10 12/51/10 69/52/10
f 8/34/4 9/36/4 16/39/4 17/6/4
f 9/36/5 30/38/5 39/41/5 16/39/5
f 65/29/1 7/32/1 18/5/1 70/43/1
f 7/32/3 8/34/3 17/6/3 18/5/3
f 31/53/2 96/54/2 10/55/2
f 11/56/2 10/55/2 96/54/2
f 12/57/2 11/56/2 96/54/2
f 69/58/2 12/57/2 96/54/2
f 118/59/11 47/60/11 19/61/11 81/62/11
f 42/63/2 35/64/2 36/65/2 41/66/2
f 47/67/12 48/68/12 21/69/12 19/70/12
f 48/71/13 49/72/13 23/73/13 21/74/13
f 49/75/14 46/76/14 25/77/14 23/78/14
f 37/79/15 32/80/15 31/81/15 38/82/15
f 36/83/16 33/84/16 32/85/16 37/86/16
f 91/87/8 27/88/8 20/89/8 82/90/8
f 27/88/8 28/91/8 22/92/8 20/89/8
f 28/91/8 29/93/8 24/94/8 22/92/8
f 29/93/8 30/95/8 26/96/8 24/94/8
f 41/66/2 36/65/2 37/97/2 40/98/2
f 40/98/2 37/97/2 38/99/2 39/100/2
f 98/101/2 107/102/2 35/64/2 42/63/2
f 35/103/17 34/104/17 33/105/17 36/106/17
f 107/107/18 97/108/18 34/109/18 35/110/18
f 28/91/13 41/66/13 40/98/13 29/93/13
f 29/93/14 40/98/14 39/100/14 30/95/14
f 91/87/11 98/101/11 42/63/11 27/88/11
f 27/88/12 42/63/12 41/66/12 28/91/12
f 31/53/2 32/111/2 96/54/2
f 33/112/2 96/54/2 32/111/2
f 34/113/2 96/54/2 33/112/2
f 97/114/2 96/54/2 34/113/2
f 81/115/8 19/116/8 112/117/8
f 21/118/8 112/117/8 19/116/8
f 23/119/8 112/117/8 21/118/8
f 25/120/8 112/117/8 23/119/8
f 25/120/8 5/121/8 112/117/8
f 5/121/8 3/122/8 112/117/8
f 3/122/8 1/123/8 112/117/8
f 1/123/8 57/124/8 112/117/8
f 122/125/1 113/126/1 43/127/1 50/128/1
f 50/129/3 43/130/3 44/131/3 51/132/3
f 51/133/4 44/134/4 45/135/4 52/136/4
f 52/137/5 45/138/5 46/139/5 53/140/5
f 127/141/11 54/142/11 47/143/11 118/144/11
f 54/145/12 55/146/12 48/147/12 47/148/12
f 55/149/13 56/150/13 49/151/13 48/152/13
f 56/153/14 53/140/14 46/139/14 49/154/14
f 24/155/14 26/156/14 53/157/14 56/158/14
f 22/159/13 24/160/13 56/161/13 55/162/13
f 20/163/12 22/164/12 55/165/12 54/166/12
f 82/167/11 20/168/11 54/169/11 127/170/11
f 6/171/5 52/172/5 53/173/5 26/174/5
f 4/175/4 51/176/4 52/177/4 6/178/4
f 2/179/3 50/180/3 51/181/3 4/182/3
f 58/183/1 122/184/1 50/185/1 2/186/1
f 113/1/18 114/187/18 59/188/18 57/2/18
f 80/189/2 74/190/2 75/191/2 79/192/2
f 114/193/17 115/194/17 61/195/17 59/196/17
f 115/197/16 116/198/16 63/199/16 61/200/16
f 116/201/15 117/202/15 89/203/15 63/204/15
f 76/205/14 71/206/14 99/207/14 106/208/14
f 75/209/13 72/210/13 71/211/13 76/212/13
f 65/213/8 66/214/8 60/215/8 58/216/8
f 66/214/8 67/217/8 62/218/8 60/215/8
f 67/217/8 68/219/8 64/220/8 62/218/8
f 68/219/8 95/221/8 90/222/8 64/220/8
f 79/192/2 75/191/2 76/223/2 78/224/2
f 78/224/2 76/223/2 106/225/2 108/226/2
f 70/227/2 77/228/2 74/190/2 80/189/2
f 74/229/12 73/230/12 72/231/12 75/232/12
f 77/49/11 69/52/11 73/233/11 74/234/11
f 67/217/16 79/192/16 78/224/16 68/219/16
f 68/219/15 78/224/15 108/226/15 95/221/15
f 65/213/18 70/227/18 80/189/18 66/214/18
f 66/214/17 80/189/17 79/192/17 67/217/17
f 99/235/2 71/236/2 96/54/2
f 72/237/2 96/54/2 71/236/2
f 73/238/2 96/54/2 72/237/2
f 69/58/2 96/54/2 73/238/2
f 118/59/10 81/62/10 83/239/10 119/240/10
f 111/241/2 110/242/2 104/243/2 103/244/2
f 119/245/9 83/246/9 85/247/9 120/248/9
f 120/249/7 85/250/7 87/251/7 121/252/7
f 121/253/6 87/254/6 89/255/6 117/256/6
f 105/257/5 106/258/5 99/259/5 100/260/5
f 104/261/4 105/262/4 100/263/4 101/264/4
f 91/265/8 82/266/8 84/267/8 92/268/8
f 92/268/8 84/267/8 86/269/8 93/270/8
f 93/270/8 86/269/8 88/271/8 94/272/8
f 94/272/8 88/271/8 90/273/8 95/274/8
f 110/242/2 109/275/2 105/276/2 104/243/2
f 109/275/2 108/277/2 106/278/2 105/276/2
f 98/279/2 111/241/2 103/244/2 107/280/2
f 103/281/3 104/282/3 101/283/3 102/284/3
f 107/107/1 103/285/1 102/286/1 97/108/1
f 93/270/7 94/272/7 109/275/7 110/242/7
f 94/272/6 95/274/6 108/277/6 109/275/6
f 91/265/10 92/268/10 111/241/10 98/279/10
f 92/268/9 93/270/9 110/242/9 111/241/9
f 99/235/2 96/54/2 100/287/2
f 101/288/2 100/287/2 96/54/2
f 102/289/2 101/288/2 96/54/2
f 97/114/2 102/289/2 96/54/2
f 81/115/8 112/117/8 83/290/8
f 85/291/8 83/290/8 112/117/8
f 87/292/8 85/291/8 112/117/8
f 89/293/8 87/292/8 112/117/8
f 89/293/8 112/117/8 63/294/8
f 63/294/8 112/117/8 61/295/8
f 61/295/8 112/117/8 59/296/8
f 59/296/8 112/117/8 57/124/8
f 122/125/18 123/297/18 114/298/18 113/126/18
f 123/299/17 124/300/17 115/301/17 114/302/17
f 124/303/16 125/304/16 116/305/16 115/306/16
f 125/307/15 126/308/15 117/309/15 116/310/15
f 127/141/10 118/144/10 119/311/10 128/312/10
f 128/313/9 119/314/9 120/315/9 129/316/9
f 129/317/7 120/318/7 121/319/7 130/320/7
f 130/321/6 121/322/6 117/323/6 126/324/6
f 88/325/6 130/326/6 126/327/6 90/328/6
f 86/329/7 129/330/7 130/331/7 88/332/7
f 84/333/9 128/334/9 129/335/9 86/336/9
f 82/337/10 127/338/10 128/339/10 84/340/10
f 64/341/15 90/342/15 126/343/15 125/344/15
f 62/345/16 64/346/16 125/347/16 124/348/16
f 60/349/17 62/350/17 124/351/17 123/352/17
f 58/353/18 60/354/18 123/355/18 122/356/18
