# Blender v2.79 (sub 0) OBJ File: 'barrel_01.blend'
# www.blender.org
mtllib barrel_01.mtl
o Barrel_Cylinder.001
v 0.000000 -1.000000 -0.750000
v 0.000000 1.000000 -0.750000
v 0.287013 -1.000000 -0.692910
v 0.287013 1.000000 -0.692910
v 0.530330 -1.000000 -0.530330
v 0.530330 1.000000 -0.530330
v 0.692910 -1.000000 -0.287013
v 0.692910 1.000000 -0.287013
v 0.750000 -1.000000 0.000000
v 0.750000 1.000000 0.000000
v 0.692910 -1.000000 0.287013
v 0.692910 1.000000 0.287013
v 0.530330 -1.000000 0.530330
v 0.530330 1.000000 0.530330
v 0.287013 -1.000000 0.692910
v 0.287013 1.000000 0.692910
v 0.000000 -1.000000 0.750000
v 0.000000 1.000000 0.750000
v -0.287012 -1.000000 0.692910
v -0.287012 1.000000 0.692910
v -0.530330 -1.000000 0.530330
v -0.530330 1.000000 0.530330
v -0.692910 -1.000000 0.287013
v -0.692910 1.000000 0.287013
v -0.750000 -1.000000 -0.000000
v -0.750000 1.000000 -0.000000
v -0.692910 -1.000000 -0.287013
v -0.692910 1.000000 -0.287013
v -0.530330 -1.000000 -0.530330
v -0.530330 1.000000 -0.530330
v -0.287012 -1.000000 -0.692910
v -0.287012 1.000000 -0.692910
v 0.000000 0.333333 -0.699226
v 0.267582 0.333333 -0.646000
v 0.494427 0.333333 -0.494427
v 0.494427 -0.333333 -0.494427
v 0.646000 0.333333 -0.267582
v 0.646000 -0.333333 -0.267582
v 0.699226 -0.333333 0.000000
v 0.646000 0.333333 0.267582
v 0.646000 -0.333333 0.267582
v 0.494427 0.333333 0.494427
v 0.494427 -0.333333 0.494427
v 0.267582 -0.333333 0.646000
v 0.000000 0.333333 0.699226
v -0.267582 0.333333 0.646001
v -0.267582 -0.333333 0.646001
v -0.494427 0.333333 0.494428
v -0.494427 -0.333333 0.494428
v -0.646000 0.333333 0.267582
v -0.646000 -0.333333 0.267582
v -0.699226 0.333333 -0.000000
v -0.646000 0.333333 -0.267582
v -0.646000 -0.333333 -0.267582
v -0.494427 0.333333 -0.494428
v -0.267582 0.333333 -0.646001
v -0.267582 -0.333333 -0.646001
v 0.000000 0.923077 -0.750000
v 0.287013 0.923077 -0.692910
v 0.530330 0.923077 -0.530330
v 0.692910 0.923077 -0.287013
v 0.750000 0.923077 0.000000
v 0.692910 0.923077 0.287013
v 0.530330 0.923077 0.530330
v 0.287013 0.923077 0.692910
v 0.000000 0.923077 0.750000
v -0.287012 0.923077 0.692910
v -0.530330 0.923077 0.530330
v -0.692910 0.923077 0.287013
v -0.750000 0.923077 -0.000000
v -0.692910 0.923077 -0.287013
v -0.530330 0.923077 -0.530330
v -0.287012 0.923077 -0.692910
v 0.267582 0.410256 -0.646000
v 0.494427 0.410256 -0.494427
v 0.646000 0.410256 -0.267582
v 0.699226 0.410256 0.000000
v 0.646000 0.410256 0.267582
v 0.494427 0.410256 0.494427
v 0.000000 0.410256 0.699226
v -0.646000 0.410256 0.267582
v -0.699226 0.410256 -0.000000
v -0.646000 0.410256 -0.267582
v -0.494427 0.410256 -0.494428
v -0.267582 0.410256 -0.646001
v 0.000000 0.410256 -0.699226
v 0.699226 -0.410256 0.000000
v 0.494427 -0.410256 0.494427
v -0.646000 -0.410256 0.267582
v -0.494427 -0.410256 -0.494428
v 0.287013 -0.923077 -0.692910
v 0.530330 -0.923077 -0.530330
v 0.692910 -0.923077 -0.287013
v 0.750000 -0.923077 0.000000
v 0.692910 -0.923077 0.287013
v 0.530330 -0.923077 0.530330
v 0.287013 -0.923077 0.692910
v 0.000000 -0.923077 0.750000
v -0.287012 -0.923077 0.692910
v -0.530330 -0.923077 0.530330
v -0.692910 -0.923077 0.287013
v -0.750000 -0.923077 -0.000000
v -0.692910 -0.923077 -0.287013
v -0.530330 -0.923077 -0.530330
v -0.287012 -0.923077 -0.692910
v 0.000000 -0.923077 -0.750000
v 0.000000 -0.333333 -0.699226
v 0.267582 -0.333333 -0.646000
v 0.699226 0.333333 0.000000
v 0.267582 0.333333 0.646000
v 0.000000 -0.333333 0.699226
v -0.699226 -0.333333 -0.000000
v -0.494427 -0.333333 -0.494428
v 0.000000 0.923077 -0.699226
v -0.267582 0.923077 -0.646001
v -0.494427 0.923077 -0.494428
v -0.646000 0.923077 -0.267582
v -0.699226 0.923077 -0.000000
v -0.646000 0.923077 0.267582
v -0.494427 0.923077 0.494428
v -0.267582 0.923077 0.646001
v 0.000000 0.923077 0.699226
v 0.267582 0.923077 0.646000
v 0.494427 0.923077 0.494427
v 0.646000 0.923077 0.267582
v 0.699226 0.923077 0.000000
v 0.646000 0.923077 -0.267582
v 0.494427 0.923077 -0.494427
v 0.267582 0.923077 -0.646000
v 0.267582 0.410256 0.646000
v -0.267582 0.410256 0.646001
v -0.494427 0.410256 0.494428
v 0.000000 -0.923077 -0.699226
v 0.000000 -0.410256 -0.699226
v 0.267582 -0.410256 -0.646000
v 0.494427 -0.410256 -0.494427
v 0.646000 -0.410256 -0.267582
v 0.646000 -0.410256 0.267582
v 0.267582 -0.410256 0.646000
v 0.000000 -0.410256 0.699226
v -0.267582 -0.410256 0.646001
v -0.494427 -0.410256 0.494428
v -0.699226 -0.410256 -0.000000
v -0.646000 -0.410256 -0.267582
v -0.267582 -0.410256 -0.646001
v 0.267582 -0.923077 -0.646000
v 0.494427 -0.923077 -0.494427
v 0.646000 -0.923077 -0.267582
v 0.699226 -0.923077 0.000000
v 0.646000 -0.923077 0.267582
v 0.494427 -0.923077 0.494427
v 0.267582 -0.923077 0.646000
v 0.000000 -0.923077 0.699226
v -0.267582 -0.923077 0.646001
v -0.494427 -0.923077 0.494428
v -0.646000 -0.923077 0.267582
v -0.699226 -0.923077 -0.000000
v -0.646000 -0.923077 -0.267582
v -0.494427 -0.923077 -0.494428
v -0.267582 -0.923077 -0.646001
v 0.000000 -0.371795 -0.736166
v 0.281719 -0.371795 -0.680129
v 0.520548 -0.371795 -0.520548
v 0.680129 -0.371795 -0.281719
v 0.736166 -0.371795 0.000000
v 0.680129 -0.371795 0.281719
v 0.520548 -0.371795 0.520548
v 0.281719 -0.371795 0.680129
v 0.000000 -0.371795 0.736166
v -0.281718 -0.371795 0.680129
v -0.520548 -0.371795 0.520548
v -0.680129 -0.371795 0.281719
v -0.736166 -0.371795 -0.000000
v -0.680129 -0.371795 -0.281719
v -0.520548 -0.371795 -0.520548
v -0.281718 -0.371795 -0.680129
v 0.281719 0.371795 -0.680129
v 0.520548 0.371795 -0.520548
v 0.680129 0.371795 -0.281719
v 0.736166 0.371795 0.000000
v 0.680129 0.371795 0.281719
v 0.520548 0.371795 0.520548
v 0.281719 0.371795 0.680129
v 0.000000 0.371795 0.736166
v -0.281718 0.371795 0.680129
v -0.520548 0.371795 0.520548
v -0.680129 0.371795 0.281719
v -0.736166 0.371795 -0.000000
v -0.680129 0.371795 -0.281719
v -0.520548 0.371795 -0.520548
v -0.281718 0.371795 -0.680129
v 0.000000 0.371795 -0.736166
vt 1.000000 0.982353
vt 1.000000 1.000000
vt 0.937484 1.000000
vt 0.937484 0.982353
vt 0.874986 1.000000
vt 0.874986 0.982353
vt 0.812489 1.000000
vt 0.812489 0.982353
vt 0.749991 1.000000
vt 0.749991 0.982353
vt 0.687493 1.000000
vt 0.687493 0.982353
vt 0.624996 1.000000
vt 0.624996 0.982353
vt 0.562498 1.000000
vt 0.562498 0.982353
vt 0.500000 1.000000
vt 0.500000 0.982353
vt 0.437503 1.000000
vt 0.437503 0.982353
vt 0.375005 1.000000
vt 0.375005 0.982353
vt 0.312507 1.000000
vt 0.312507 0.982353
vt 0.250009 1.000000
vt 0.250009 0.982353
vt 0.187512 1.000000
vt 0.187512 0.982353
vt 0.125014 1.000000
vt 0.125014 0.982353
vt 0.116623 0.449846
vt 0.050103 0.383325
vt 0.014102 0.296412
vt 0.014102 0.202338
vt 0.050103 0.115426
vt 0.116623 0.048905
vt 0.203536 0.012905
vt 0.297610 0.012905
vt 0.384523 0.048905
vt 0.451044 0.115426
vt 0.487044 0.202339
vt 0.487044 0.296413
vt 0.451044 0.383326
vt 0.384523 0.449846
vt 0.297610 0.485846
vt 0.203536 0.485846
vt 0.062516 1.000000
vt 0.062516 0.982353
vt 0.000000 1.000000
vt 0.000000 0.982353
vt 0.986633 0.202339
vt 0.986633 0.296413
vt 0.950632 0.383326
vt 0.884112 0.449846
vt 0.797199 0.485847
vt 0.703125 0.485847
vt 0.616212 0.449846
vt 0.549691 0.383326
vt 0.513691 0.296413
vt 0.513691 0.202339
vt 0.549692 0.115426
vt 0.616212 0.048906
vt 0.703125 0.012905
vt 0.797199 0.012905
vt 0.884112 0.048906
vt 0.950632 0.115426
vt 0.062516 0.662666
vt 0.062516 0.675051
vt 0.000000 0.675051
vt 0.000000 0.662666
vt 0.437502 0.520689
vt 0.500000 0.520689
vt 0.500000 0.532635
vt 0.437502 0.532635
vt 0.125014 0.662666
vt 0.125014 0.675051
vt 0.187512 0.662666
vt 0.187512 0.675051
vt 0.250009 0.662666
vt 0.250009 0.675051
vt 0.375005 0.520689
vt 0.375005 0.532635
vt 0.312507 0.662666
vt 0.312507 0.675051
vt 0.375005 0.662666
vt 0.375005 0.675051
vt 0.437503 0.662666
vt 0.437503 0.675051
vt 0.312507 0.520689
vt 0.312507 0.532635
vt 0.500000 0.662666
vt 0.500000 0.675051
vt 0.562498 0.662666
vt 0.562498 0.675051
vt 0.624995 0.662666
vt 0.624995 0.675051
vt 0.250009 0.520689
vt 0.250009 0.532635
vt 0.687493 0.662666
vt 0.687493 0.675051
vt 0.749991 0.662666
vt 0.749991 0.675051
vt 0.812489 0.662666
vt 0.812489 0.675051
vt 0.874986 0.662666
vt 0.874986 0.675051
vt 0.187511 0.520689
vt 0.187511 0.532635
vt 0.937484 0.662666
vt 0.937484 0.675051
vt 1.000000 0.662666
vt 1.000000 0.675051
vt 0.125014 0.520689
vt 0.125014 0.532635
vt 0.062516 0.520689
vt 0.062516 0.532635
vt 0.000000 0.520689
vt 0.000000 0.532635
vt 1.000000 0.840375
vt 1.000000 0.852761
vt 0.937484 0.852761
vt 0.937484 0.840375
vt 0.874986 0.852761
vt 0.874986 0.840376
vt 0.812489 0.852761
vt 0.812489 0.840376
vt 0.749991 0.852761
vt 0.749991 0.840376
vt 0.687493 0.852761
vt 0.687493 0.840376
vt 0.624996 0.852761
vt 0.624996 0.840376
vt 0.562498 0.852761
vt 0.562498 0.840376
vt 0.500000 0.852761
vt 0.500000 0.840376
vt 0.437503 0.852761
vt 0.437503 0.840376
vt 0.375005 0.852761
vt 0.375005 0.840376
vt 0.312507 0.852761
vt 0.312507 0.840376
vt 0.250009 0.852761
vt 0.250009 0.840376
vt 0.187512 0.852761
vt 0.187512 0.840376
vt 0.125014 0.852761
vt 0.125014 0.840376
vt 0.062516 0.852761
vt 0.062516 0.840376
vt 0.000000 0.852761
vt 0.000000 0.840376
vt 0.937484 0.970406
vt 1.000000 0.970406
vt 0.874986 0.970406
vt 0.812489 0.970407
vt 0.749991 0.970407
vt 0.062516 0.503015
vt 0.000000 0.503015
vt 0.125014 0.503015
vt 0.187511 0.503015
vt 0.250009 0.503015
vt 0.312507 0.503015
vt 0.375005 0.503015
vt 0.437502 0.503015
vt 0.500000 0.503015
vt 0.562498 0.503015
vt 0.562498 0.520689
vt 0.624995 0.503015
vt 0.624995 0.520689
vt 0.687493 0.503015
vt 0.687493 0.520689
vt 0.749991 0.503015
vt 0.749991 0.520689
vt 0.812489 0.503015
vt 0.812489 0.520689
vt 0.874986 0.503015
vt 0.874986 0.520689
vt 0.937484 0.503015
vt 0.937484 0.520688
vt 1.000000 0.503015
vt 1.000000 0.520688
vt 0.062516 0.827990
vt 0.000000 0.827990
vt 0.125014 0.827990
vt 0.187512 0.827990
vt 0.250009 0.827990
vt 0.312507 0.827990
vt 0.375005 0.827990
vt 0.437503 0.827990
vt 0.500000 0.827990
vt 0.562498 0.827990
vt 0.624996 0.827990
vt 0.687493 0.827990
vt 0.749991 0.827990
vt 0.812489 0.827990
vt 0.874986 0.827990
vt 0.937484 0.827990
vt 1.000000 0.827990
vt 0.062516 0.970407
vt 0.000000 0.970407
vt 0.125014 0.970407
vt 0.187512 0.970407
vt 0.250009 0.970407
vt 0.312507 0.970407
vt 0.375005 0.970407
vt 0.437503 0.970407
vt 0.500000 0.970407
vt 0.562498 0.970407
vt 0.624996 0.970407
vt 0.687493 0.970407
vt 1.000000 0.532635
vt 1.000000 0.650280
vt 0.937484 0.650280
vt 0.937484 0.532635
vt 0.874986 0.650280
vt 0.874986 0.532635
vt 0.812489 0.650280
vt 0.812489 0.532635
vt 0.749991 0.650280
vt 0.749991 0.532635
vt 0.687493 0.650280
vt 0.687493 0.532635
vt 0.624995 0.650280
vt 0.624995 0.532635
vt 0.562498 0.650280
vt 0.562498 0.532635
vt 0.500000 0.650280
vt 0.437502 0.650280
vt 0.375005 0.650280
vt 0.312507 0.650280
vt 0.250009 0.650280
vt 0.187512 0.650280
vt 0.125014 0.650280
vt 0.062516 0.650281
vt 0.000000 0.650281
vn 0.1951 0.0000 -0.9808
vn 0.5556 0.0000 -0.8315
vn 0.8315 0.0000 -0.5556
vn 0.9808 0.0000 -0.1951
vn 0.9808 0.0000 0.1951
vn 0.8315 0.0000 0.5556
vn 0.5556 0.0000 0.8315
vn 0.1951 0.0000 0.9808
vn -0.1951 0.0000 0.9808
vn -0.5556 0.0000 0.8315
vn -0.8315 0.0000 0.5556
vn -0.9808 0.0000 0.1951
vn -0.9808 0.0000 -0.1951
vn -0.8315 0.0000 -0.5556
vn 0.0000 1.0000 0.0000
vn -0.5556 0.0000 -0.8315
vn -0.1951 0.0000 -0.9808
vn 0.0000 -1.0000 -0.0000
vn -0.1420 0.6857 -0.7139
vn -0.4044 0.6857 -0.6052
vn -0.6052 0.6857 -0.4044
vn -0.7139 0.6857 -0.1420
vn -0.7139 0.6857 0.1420
vn -0.6052 0.6857 0.4044
vn -0.4044 0.6857 0.6052
vn -0.1420 0.6857 0.7139
vn 0.1420 0.6857 0.7139
vn 0.4044 0.6857 0.6052
vn 0.6052 0.6857 0.4044
vn 0.7139 0.6857 0.1420
vn 0.7139 0.6857 -0.1420
vn 0.6052 0.6857 -0.4044
vn 0.4044 0.6857 -0.6052
vn 0.1420 0.6857 -0.7139
vn 0.1420 -0.6857 -0.7139
vn 0.4044 -0.6857 -0.6052
vn 0.6052 -0.6857 -0.4044
vn 0.7139 -0.6857 -0.1420
vn 0.7139 -0.6857 0.1420
vn 0.6052 -0.6857 0.4044
vn 0.4044 -0.6857 0.6052
vn 0.1420 -0.6857 0.7139
vn -0.1420 -0.6857 0.7139
vn -0.4044 -0.6857 0.6052
vn -0.6052 -0.6857 0.4044
vn -0.7139 -0.6857 0.1420
vn -0.7139 -0.6857 -0.1420
vn -0.6052 -0.6857 -0.4044
vn -0.4044 -0.6857 -0.6052
vn -0.1420 -0.6857 -0.7139
usemtl None
s off
f 58/1/1 2/2/1 4/3/1 59/4/1
f 59/4/2 4/3/2 6/5/2 60/6/2
f 60/6/3 6/5/3 8/7/3 61/8/3
f 61/8/4 8/7/4 10/9/4 62/10/4
f 62/10/5 10/9/5 12/11/5 63/12/5
f 63/12/6 12/11/6 14/13/6 64/14/6
f 64/14/7 14/13/7 16/15/7 65/16/7
f 65/16/8 16/15/8 18/17/8 66/18/8
f 66/18/9 18/17/9 20/19/9 67/20/9
f 67/20/10 20/19/10 22/21/10 68/22/10
f 68/22/11 22/21/11 24/23/11 69/24/11
f 69/24/12 24/23/12 26/25/12 70/26/12
f 70/26/13 26/25/13 28/27/13 71/28/13
f 71/28/14 28/27/14 30/29/14 72/30/14
f 4/31/15 2/32/15 32/33/15 30/34/15 28/35/15 26/36/15 24/37/15 22/38/15 20/39/15 18/40/15 16/41/15 14/42/15 12/43/15 10/44/15 8/45/15 6/46/15
f 72/30/16 30/29/16 32/47/16 73/48/16
f 73/48/17 32/47/17 2/49/17 58/50/17
f 1/51/18 3/52/18 5/53/18 7/54/18 9/55/18 11/56/18 13/57/18 15/58/18 17/59/18 19/60/18 21/61/18 23/62/18 25/63/18 27/64/18 29/65/18 31/66/18
f 176/67/19 57/68/19 107/69/19 161/70/19
f 99/71/15 98/72/15 153/73/15 154/74/15
f 175/75/20 113/76/20 57/68/20 176/67/20
f 174/77/21 54/78/21 113/76/21 175/75/21
f 173/79/22 112/80/22 54/78/22 174/77/22
f 100/81/15 99/71/15 154/74/15 155/82/15
f 172/83/23 51/84/23 112/80/23 173/79/23
f 171/85/24 49/86/24 51/84/24 172/83/24
f 170/87/25 47/88/25 49/86/25 171/85/25
f 101/89/15 100/81/15 155/82/15 156/90/15
f 169/91/26 111/92/26 47/88/26 170/87/26
f 168/93/27 44/94/27 111/92/27 169/91/27
f 167/95/28 43/96/28 44/94/28 168/93/28
f 102/97/15 101/89/15 156/90/15 157/98/15
f 166/99/29 41/100/29 43/96/29 167/95/29
f 165/101/30 39/102/30 41/100/30 166/99/30
f 164/103/31 38/104/31 39/102/31 165/101/31
f 163/105/32 36/106/32 38/104/32 164/103/32
f 103/107/15 102/97/15 157/98/15 158/108/15
f 162/109/33 108/110/33 36/106/33 163/105/33
f 161/111/34 107/112/34 108/110/34 162/109/34
f 104/113/15 103/107/15 158/108/15 159/114/15
f 105/115/15 104/113/15 159/114/15 160/116/15
f 106/117/15 105/115/15 160/116/15 133/118/15
f 192/119/34 86/120/34 74/121/34 177/122/34
f 177/122/33 74/121/33 75/123/33 178/124/33
f 178/124/32 75/123/32 76/125/32 179/126/32
f 179/126/31 76/125/31 77/127/31 180/128/31
f 180/128/30 77/127/30 78/129/30 181/130/30
f 181/130/29 78/129/29 79/131/29 182/132/29
f 182/132/28 79/131/28 130/133/28 183/134/28
f 183/134/27 130/133/27 80/135/27 184/136/27
f 184/136/26 80/135/26 131/137/26 185/138/26
f 185/138/25 131/137/25 132/139/25 186/140/25
f 186/140/24 132/139/24 81/141/24 187/142/24
f 187/142/23 81/141/23 82/143/23 188/144/23
f 188/144/22 82/143/22 83/145/22 189/146/22
f 189/146/21 83/145/21 84/147/21 190/148/21
f 190/148/20 84/147/20 85/149/20 191/150/20
f 191/150/19 85/149/19 86/151/19 192/152/19
f 58/1/18 59/4/18 129/153/18 114/154/18
f 59/4/18 60/6/18 128/155/18 129/153/18
f 60/6/18 61/8/18 127/156/18 128/155/18
f 61/8/18 62/10/18 126/157/18 127/156/18
f 31/158/17 105/115/17 106/117/17 1/159/17
f 29/160/16 104/113/16 105/115/16 31/158/16
f 27/161/14 103/107/14 104/113/14 29/160/14
f 25/162/13 102/97/13 103/107/13 27/161/13
f 23/163/12 101/89/12 102/97/12 25/162/12
f 21/164/11 100/81/11 101/89/11 23/163/11
f 19/165/10 99/71/10 100/81/10 21/164/10
f 17/166/9 98/72/9 99/71/9 19/165/9
f 15/167/8 97/168/8 98/72/8 17/166/8
f 13/169/7 96/170/7 97/168/7 15/167/7
f 11/171/6 95/172/6 96/170/6 13/169/6
f 9/173/5 94/174/5 95/172/5 11/171/5
f 7/175/4 93/176/4 94/174/4 9/173/4
f 5/177/3 92/178/3 93/176/3 7/175/3
f 3/179/2 91/180/2 92/178/2 5/177/2
f 1/181/1 106/182/1 91/180/1 3/179/1
f 57/68/17 56/183/17 33/184/17 107/69/17
f 113/76/16 55/185/16 56/183/16 57/68/16
f 54/78/14 53/186/14 55/185/14 113/76/14
f 112/80/13 52/187/13 53/186/13 54/78/13
f 51/84/12 50/188/12 52/187/12 112/80/12
f 49/86/11 48/189/11 50/188/11 51/84/11
f 47/88/10 46/190/10 48/189/10 49/86/10
f 111/92/9 45/191/9 46/190/9 47/88/9
f 44/94/8 110/192/8 45/191/8 111/92/8
f 43/96/7 42/193/7 110/192/7 44/94/7
f 41/100/6 40/194/6 42/193/6 43/96/6
f 39/102/5 109/195/5 40/194/5 41/100/5
f 38/104/4 37/196/4 109/195/4 39/102/4
f 36/106/3 35/197/3 37/196/3 38/104/3
f 108/110/2 34/198/2 35/197/2 36/106/2
f 107/112/1 33/199/1 34/198/1 108/110/1
f 85/149/17 115/200/17 114/201/17 86/151/17
f 84/147/16 116/202/16 115/200/16 85/149/16
f 83/145/14 117/203/14 116/202/14 84/147/14
f 82/143/13 118/204/13 117/203/13 83/145/13
f 81/141/12 119/205/12 118/204/12 82/143/12
f 132/139/11 120/206/11 119/205/11 81/141/11
f 131/137/10 121/207/10 120/206/10 132/139/10
f 80/135/9 122/208/9 121/207/9 131/137/9
f 130/133/8 123/209/8 122/208/8 80/135/8
f 79/131/7 124/210/7 123/209/7 130/133/7
f 78/129/6 125/211/6 124/210/6 79/131/6
f 77/127/5 126/157/5 125/211/5 78/129/5
f 76/125/4 127/156/4 126/157/4 77/127/4
f 75/123/3 128/155/3 127/156/3 76/125/3
f 74/121/2 129/153/2 128/155/2 75/123/2
f 86/120/1 114/154/1 129/153/1 74/121/1
f 133/212/1 134/213/1 135/214/1 146/215/1
f 146/215/2 135/214/2 136/216/2 147/217/2
f 147/217/3 136/216/3 137/218/3 148/219/3
f 148/219/4 137/218/4 87/220/4 149/221/4
f 149/221/5 87/220/5 138/222/5 150/223/5
f 150/223/6 138/222/6 88/224/6 151/225/6
f 151/225/7 88/224/7 139/226/7 152/227/7
f 152/227/8 139/226/8 140/228/8 153/73/8
f 153/73/9 140/228/9 141/229/9 154/74/9
f 154/74/10 141/229/10 142/230/10 155/82/10
f 155/82/11 142/230/11 89/231/11 156/90/11
f 156/90/12 89/231/12 143/232/12 157/98/12
f 157/98/13 143/232/13 144/233/13 158/108/13
f 158/108/14 144/233/14 90/234/14 159/114/14
f 159/114/16 90/234/16 145/235/16 160/116/16
f 160/116/17 145/235/17 134/236/17 133/118/17
f 98/72/15 97/168/15 152/227/15 153/73/15
f 73/48/18 58/50/18 114/201/18 115/200/18
f 97/168/15 96/170/15 151/225/15 152/227/15
f 72/30/18 73/48/18 115/200/18 116/202/18
f 96/170/15 95/172/15 150/223/15 151/225/15
f 71/28/18 72/30/18 116/202/18 117/203/18
f 95/172/15 94/174/15 149/221/15 150/223/15
f 70/26/18 71/28/18 117/203/18 118/204/18
f 94/174/15 93/176/15 148/219/15 149/221/15
f 69/24/18 70/26/18 118/204/18 119/205/18
f 93/176/15 92/178/15 147/217/15 148/219/15
f 68/22/18 69/24/18 119/205/18 120/206/18
f 92/178/15 91/180/15 146/215/15 147/217/15
f 67/20/18 68/22/18 120/206/18 121/207/18
f 91/180/15 106/182/15 133/212/15 146/215/15
f 66/18/18 67/20/18 121/207/18 122/208/18
f 65/16/18 66/18/18 122/208/18 123/209/18
f 64/14/18 65/16/18 123/209/18 124/210/18
f 63/12/18 64/14/18 124/210/18 125/211/18
f 62/10/18 63/12/18 125/211/18 126/157/18
f 134/213/35 161/111/35 162/109/35 135/214/35
f 135/214/36 162/109/36 163/105/36 136/216/36
f 136/216/37 163/105/37 164/103/37 137/218/37
f 137/218/38 164/103/38 165/101/38 87/220/38
f 87/220/39 165/101/39 166/99/39 138/222/39
f 138/222/40 166/99/40 167/95/40 88/224/40
f 88/224/41 167/95/41 168/93/41 139/226/41
f 139/226/42 168/93/42 169/91/42 140/228/42
f 140/228/43 169/91/43 170/87/43 141/229/43
f 141/229/44 170/87/44 171/85/44 142/230/44
f 142/230/45 171/85/45 172/83/45 89/231/45
f 89/231/46 172/83/46 173/79/46 143/232/46
f 143/232/47 173/79/47 174/77/47 144/233/47
f 144/233/48 174/77/48 175/75/48 90/234/48
f 90/234/49 175/75/49 176/67/49 145/235/49
f 145/235/50 176/67/50 161/70/50 134/236/50
f 56/183/50 191/150/50 192/152/50 33/184/50
f 55/185/49 190/148/49 191/150/49 56/183/49
f 53/186/48 189/146/48 190/148/48 55/185/48
f 52/187/47 188/144/47 189/146/47 53/186/47
f 50/188/46 187/142/46 188/144/46 52/187/46
f 48/189/45 186/140/45 187/142/45 50/188/45
f 46/190/44 185/138/44 186/140/44 48/189/44
f 45/191/43 184/136/43 185/138/43 46/190/43
f 110/192/42 183/134/42 184/136/42 45/191/42
f 42/193/41 182/132/41 183/134/41 110/192/41
f 40/194/40 181/130/40 182/132/40 42/193/40
f 109/195/39 180/128/39 181/130/39 40/194/39
f 37/196/38 179/126/38 180/128/38 109/195/38
f 35/197/37 178/124/37 179/126/37 37/196/37
f 34/198/36 177/122/36 178/124/36 35/197/36
f 33/199/35 192/119/35 177/122/35 34/198/35
