# Blender v2.79 (sub 0) OBJ File: 'catwalk_10.blend'
# www.blender.org
mtllib catwalk_10.mtl
o Cube
v -5.000001 -0.175000 1.000000
v -5.000001 0.060000 1.000000
v -5.000001 -0.175000 -1.000000
v -5.000001 0.060000 -1.000000
v 5.000001 -0.175000 1.000000
v 5.000001 0.060000 1.000000
v 5.000001 -0.175000 -1.000000
v 5.000001 0.060000 -1.000000
v -5.000001 0.000000 1.000000
v -5.000001 0.000000 -1.000000
v 5.000001 0.000000 1.000000
v 5.000001 0.000000 -1.000000
vt 10.000000 2.000000
vt 0.000000 2.000000
vt 0.000000 0.000000
vt 10.000000 0.000000
vt 0.220240 0.155029
vt 0.220240 0.155029
vt 0.220240 0.155029
vt 0.220240 0.155029
vt 0.220240 0.155029
vt 0.220240 0.155029
vt 0.220240 0.155029
vt 0.220240 0.155029
vn 0.0000 1.0000 0.0000
vn 0.0000 0.0000 -1.0000
vn 0.0000 0.0000 1.0000
usemtl catwalk_top
s off
f 12/1/1 10/2/1 9/3/1 11/4/1
usemtl catwalk_side
f 3/5/2 4/6/2 8/7/2 7/8/2
f 5/9/3 6/10/3 2/11/3 1/12/3
